<?xml version="1.0" encoding="UTF-8"?><svg id="b" xmlns="http://www.w3.org/2000/svg" width="1130.76" height="528.11" viewBox="0 0 1130.76 528.11"><g id="c"><polygon points="146.83 302.73 152 302.73 152 287.22 156.28 287.22 156.28 282.84 142.56 282.84 142.56 287.22 146.83 287.22 146.83 302.73" fill="#0c2340" stroke-width="0"/><polygon points="164.34 291.29 168.9 302.73 170.96 302.73 175.74 291.29 175.79 291.29 177.24 302.73 182.41 302.73 179.4 282.84 174.26 282.84 169.98 293.47 165.95 282.84 160.85 282.84 157.48 302.73 162.62 302.73 164.29 291.29 164.34 291.29" fill="#0c2340" stroke-width="0"/><path d="M778.52,237.75l5.28-35.17-27.26,12.49C726.16,151.68,619.25-1.4,298.74,12.15c0,0,113.31,44.03,151.52,97.04,0,0-94.56-73.01-279.08-29.32,0,0,140.22,31.07,178.25,87.73,0,0-95.99-60.38-245.7-18.25,0,0,106.53,9.43,157.05,63.49,0,0-106.02-23.78-213.8,9.54,0,0,132.4,12.47,180.42,81.04l-115.84,37.76c214.15,26.83,374.31,134.87,427.15,173.87,186.97-86.08,395.33-144.09,572.02-117.5-60.37-118.71-209.86-143.83-332.21-159.8ZM675.93,197.93l16.7-33.75,22.09,104.63s-51.27-77.3-229.1-111.17c0,0,116.87-13.83,190.31,40.29ZM640.95,291.73c14.16,3.73,30.78-2.38,39.36-13.91l9.78,5.93c-19.58,16.9-55.16,35.37-90.08,11.08-28.34-19.69-15.54-53.43,3.08-63.82l30.07,18.23c-3.09,2.7-5.7,5.88-7.56,9.44-7.37,14.1-.51,28.92,15.36,33.05ZM480.89,271.58c-29.85.38-106.73,6.19-201.5,61.09,60.46-82.68,192.19-136.42,290.97-113.57-12.78,10.05-22.84,21.98-25.61,32.33-12.64,47.34,23.14,71.35,71.45,76.66-25.09,12.82-81.97,19.43-118.59-8.8-18.24-14.08-19.97-41.57-16.72-47.72ZM554.6,375.07l29.44,16.89-87.24,52.26,57.8-69.16ZM529.11,475.12l71.11-71.8,49.62,29.81-120.73,41.98ZM702.5,412.33c-34.95-9.26-57.38-25.51-68.1-34.9l221.31-.08c-53.28,7.92-99.86,19.91-153.21,34.97ZM635.58,355.46c19.3-15.75,70.03-51.55,164.65-83.42,107.35,14.4,200.44,38.63,249.68,90.69,0,0-248.23-28.11-414.33-7.27Z" fill="#0c2340" stroke-width="0"/><path d="M797,288.03c-11.3,2.98-46.76,20.36-53.2,24.05,0,0,69.55-12.22,129.77-9.04-19.73-9.29-50.27-16.07-76.57-15.01Z" fill="#0c2340" stroke-width="0"/><path d="M633.16,249.24l-30.07-18.23c-18.62,10.39-31.41,44.13-3.08,63.82,34.93,24.29,70.51,5.83,90.08-11.08l-9.78-5.93c-8.58,11.53-25.19,17.64-39.36,13.91-15.87-4.13-22.72-18.96-15.36-33.05,1.87-3.56,4.47-6.74,7.56-9.44Z" fill="#fff" stroke-width="0"/><path d="M714.73,268.81l-22.09-104.63-16.7,33.75c-73.43-54.12-190.31-40.29-190.31-40.29,177.82,33.87,229.1,111.17,229.1,111.17Z" fill="#f15a22" stroke-width="0"/><path d="M800.22,272.04c-94.62,31.87-145.35,67.67-164.65,83.42,166.1-20.84,414.33,7.27,414.33,7.27-49.24-52.07-142.33-76.29-249.68-90.69ZM743.79,312.07c6.44-3.68,41.9-21.06,53.2-24.05,26.3-1.06,56.83,5.72,76.57,15.01-60.22-3.18-129.77,9.04-129.77,9.04Z" fill="#fff" stroke-width="0"/><path d="M702.5,412.33c53.35-15.06,99.93-27.05,153.21-34.97l-221.31.08c10.72,9.38,33.15,25.64,68.1,34.9Z" fill="#fff" stroke-width="0"/><path d="M616.2,328.09c-48.31-5.31-84.08-29.32-71.45-76.66,2.76-10.36,12.83-22.29,25.61-32.33-98.79-22.85-230.51,30.89-290.97,113.57,94.77-54.9,171.65-60.71,201.5-61.09-3.25,6.15-1.52,33.64,16.72,47.72,36.62,28.22,93.5,21.61,118.59,8.8Z" fill="#f15a22" stroke-width="0"/><polygon points="554.6 375.07 496.8 444.22 584.04 391.96 554.6 375.07" fill="#f15a22" stroke-width="0"/><polygon points="529.11 475.12 649.85 433.14 600.23 403.32 529.11 475.12" fill="#f15a22" stroke-width="0"/><path d="M338.01,11.3c290.06.01,389.42,143.04,418.52,203.78l27.26-12.49-5.28,35.17c122.35,15.97,271.84,41.09,332.21,159.8-29.41-4.43-59.69-6.51-90.61-6.51-154.85,0-325.56,52.25-481.42,124.01-52.84-39-213-147.04-427.15-173.87l115.84-37.76c-48.02-68.57-180.42-81.04-180.42-81.04,44.4-13.73,88.5-17.76,125.02-17.76,52.12,0,88.78,8.22,88.78,8.22-50.51-54.06-157.05-63.49-157.05-63.49,38.72-10.9,73.84-14.94,104.65-14.93,88.29,0,141.06,33.19,141.06,33.19-38.03-56.66-178.25-87.73-178.25-87.73,42.5-10.07,80.22-13.94,113.12-13.94,109.93,0,165.96,43.25,165.96,43.25C412.05,56.18,298.74,12.15,298.74,12.15c13.48-.57,26.54-.84,39.27-.84M783.8,202.59h.02M338.01,0h-.04c-12.94,0-26.3.29-39.71.85l-47.28,2.01,43.78,19.15c.72.28,46.98,19.16,89.24,45.48-26.23-7.27-59.47-12.86-99.69-12.86-36.88,0-75.81,4.79-115.72,14.24l-45.96,11.06,46.12,10.97c.93.21,65.03,14.68,116.37,40.69-21.32-4.88-47.08-8.48-76.73-8.48-35.25,0-71.49,5.17-107.71,15.36l-48.48,16.32,50.55,5.81c.82.07,66.93,6.33,117.17,34.94-13.58-1.27-29.82-2.23-47.91-2.23-45.96,0-89.15,6.15-128.36,18.27l-21.15,7.52-22.49,7.99,45.92,6.54c1.18.11,111.38,11.18,162.23,64.18l-100.1,32.63-41.55,15.17,43.65,6.79c205.64,25.77,363.51,128.7,421.85,171.75l5.37,3.97,6.07-2.79c121.85-56.1,303.46-122.97,476.69-122.97,30.87,0,60.79,2.15,88.92,6.38l21.71,3.27-9.95-19.57c-28.36-55.77-77.06-96.28-148.89-123.85-57.97-22.25-122.82-32.79-180.51-40.52l3.57-23.79,3.1-20.65-18.98,8.7-17.37,7.96C725.9,132.88,619.49.01,338.01,0h0Z" fill="#fff" stroke-width="0"/></g></svg>